<svg width="48" height="48" viewBox="0 0 48 48" fill="none" xmlns="http://www.w3.org/2000/svg">
<rect width="48" height="48" rx="4" fill="#23232E"/>
<rect width="48" height="9" fill="#57617E"/>
<path fill-rule="evenodd" clip-rule="evenodd" d="M29.3869 31.4912C32.6428 29.7456 34.8572 26.31 34.8572 22.3571C34.8572 16.6371 30.2201 12 24.5 12C18.78 12 14.1429 16.6371 14.1429 22.3571C14.1429 26.31 16.3573 29.7456 19.6132 31.4912C19.3907 31.5709 19.1699 31.656 18.9511 31.7467C17.1919 32.4753 15.5934 33.5434 14.2469 34.8899C12.9005 36.2363 11.8324 37.8348 11.1037 39.594C10.3751 41.3532 10 43.2387 10 45.1429L24.5 45.1429H39C39 43.2387 38.6249 41.3532 37.8963 39.594C37.1676 37.8348 36.0995 36.2363 34.753 34.8899C33.4066 33.5434 31.8081 32.4753 30.0489 31.7467C29.8301 31.656 29.6094 31.5709 29.3869 31.4912Z" fill="#D9D9D9"/>
<rect x="3" y="2" width="5" height="5" rx="2.5" fill="#C64949"/>
<rect x="10" y="2" width="5" height="5" rx="2.5" fill="#D7BF41"/>
<rect x="17" y="2" width="5" height="5" rx="2.5" fill="#41D774"/>
</svg>
